<svg height="491.99944pt" viewBox="1 1 491.99944 491.99944" width="491.99944pt" xmlns="http://www.w3.org/2000/svg"><path d="m398.441406 246.191406c.03125 22.117188-4.8125 43.972656-14.183594 64.007813l-1.097656-.210938c-5.292968-8.230469-14.191406-13.449219-23.960937-14.046875-.316407.300782-.609375.628906-.871094.976563-5.171875 6.3125-12.96875 9.886719-21.125 9.683593-8.15625-.199218-15.765625-4.152343-20.625-10.710937-6.753906.164063-13.269531 2.5625-18.519531 6.820313-6.089844-9.109376-16.082032-14.847657-27.019532-15.519532-.363281.339844-.695312.714844-.988281 1.117188-5.910156 7.214844-14.816406 11.300781-24.136719 11.070312-9.320312-.226562-18.015624-4.742187-23.5625-12.238281-11.46875.277344-22.074218 6.15625-28.390624 15.730469l-1.230469-1.101563c-4.730469-3.457031-10.351563-5.484375-16.199219-5.828125-.320312.300782-.609375.628906-.871094.976563-5.175781 6.3125-12.96875 9.886719-21.128906 9.683593-8.15625-.199218-15.765625-4.152343-20.621094-10.710937-10.171875.253906-19.558594 5.53125-25.058594 14.089844h-.011718c-9.300782-19.980469-14.105469-41.753907-14.082032-63.789063 0-83.652344 67.980469-151.460937 151.84375-151.460937 83.859376 0 151.839844 67.808593 151.839844 151.460937zm-33.792968 12.136719v-13.660156c0-15.082031-12.226563-27.3125-27.3125-27.3125-15.085938 0-27.316407 12.230469-27.316407 27.3125v13.660156c0 15.085937 12.230469 27.316406 27.316407 27.316406 15.085937 0 27.3125-12.230469 27.3125-27.316406zm-87.378907-14.097656v-15.609375c0-17.234375-13.972656-31.207032-31.203125-31.207032-17.234375 0-31.207031 13.972657-31.207031 31.207032v15.609375c0 17.234375 13.972656 31.203125 31.207031 31.203125 17.230469 0 31.203125-13.96875 31.203125-31.203125zm-95.289062 14.097656v-13.660156c0-15.082031-12.230469-27.3125-27.316407-27.3125-15.085937 0-27.3125 12.230469-27.3125 27.3125v13.660156c0 15.085937 12.226563 27.316406 27.3125 27.316406 15.085938 0 27.316407-12.230469 27.316407-27.316406zm0 0" fill="#e48e66"/><path d="m383.160156 309.988281 1.097656.210938c-16.230468 34.59375-44.882812 61.816406-80.257812 76.261719l-.011719-.78125v-63.441407c.015625-6.953125-2.050781-13.753906-5.929687-19.527343 5.25-4.257813 11.765625-6.65625 18.519531-6.820313 4.859375 6.558594 12.46875 10.511719 20.625 10.710937 8.15625.203126 15.953125-3.371093 21.125-9.683593.261719-.347657.554687-.675781.871094-.976563 9.769531.597656 18.667969 5.816406 23.960937 14.046875zm0 0" fill="#6fe3ff"/><path d="m364.648438 244.667969v13.660156c0 15.085937-12.226563 27.316406-27.3125 27.316406-15.085938 0-27.316407-12.230469-27.316407-27.316406v-13.660156c0-15.082031 12.230469-27.3125 27.316407-27.3125 15.085937 0 27.3125 12.230469 27.3125 27.3125zm0 0" fill="#6fe3ff"/><path d="m298.058594 302.710938c3.878906 5.773437 5.945312 12.574218 5.929687 19.527343v63.441407l.011719.78125c-37.222656 15.101562-78.898438 14.921874-115.992188-.5l.121094-.28125v-63.441407c.003906-19.042969 15.183594-34.609375 34.222656-35.097656 5.546876 7.496094 14.242188 12.011719 23.5625 12.238281 9.320313.230469 18.226563-3.855468 24.136719-11.070312.292969-.402344.625-.777344.988281-1.117188 10.9375.671875 20.929688 6.410156 27.019532 15.519532zm0 0" fill="#f8ec7d"/><path d="m277.269531 228.621094v15.609375c0 17.234375-13.972656 31.203125-31.203125 31.203125-17.234375 0-31.207031-13.96875-31.207031-31.203125v-15.609375c0-17.234375 13.972656-31.207032 31.207031-31.207032 17.230469 0 31.203125 13.972657 31.203125 31.207032zm0 0" fill="#f8ec7d"/><g fill="#6fe3ff"><path d="m192.730469 301.769531 1.230469 1.101563c-3.816407 5.738281-5.84375 12.476562-5.832032 19.367187v63.441407l-.121094.28125c-34.917968-14.601563-63.144531-41.691407-79.167968-75.980469h.011718c5.5-8.558594 14.886719-13.835938 25.058594-14.089844 4.855469 6.558594 12.464844 10.511719 20.621094 10.710937 8.160156.203126 15.953125-3.371093 21.128906-9.683593.261719-.347657.550782-.675781.871094-.976563 5.847656.34375 11.46875 2.371094 16.199219 5.828125zm0 0"/><path d="m181.980469 244.667969v13.660156c0 15.085937-12.230469 27.316406-27.316407 27.316406-15.085937 0-27.3125-12.230469-27.3125-27.316406v-13.660156c0-15.082031 12.226563-27.3125 27.3125-27.3125 15.085938 0 27.316407 12.230469 27.316407 27.3125zm0 0"/><path d="m250.242188 1.757812c-2.34375-2.34375-6.140626-2.34375-8.484376 0l-26.519531 26.519532c-2.34375 2.339844-2.34375 6.140625 0 8.484375 2.339844 2.34375 6.140625 2.34375 8.484375 0l15.335938-15.335938v49.265625c0 3.3125 2.6875 6 6 6 3.316406 0 6-2.6875 6-6v-50.632812c0-.183594-.011719-.363282-.027344-.539063l17.246094 17.242188c2.34375 2.34375 6.140625 2.34375 8.484375 0s2.34375-6.144531 0-8.484375zm0 0"/><path d="m268.277344 455.238281-15.335938 15.335938v-49.265625c0-3.3125-2.6875-6-6-6-3.316406 0-6 2.6875-6 6v50.632812c0 .179688.007813.359375.023438.539063l-17.242188-17.242188c-2.34375-2.34375-6.144531-2.34375-8.484375 0-2.34375 2.34375-2.34375 6.140625 0 8.484375l26.519531 26.519532c2.34375 2.34375 6.140626 2.34375 8.484376 0l26.519531-26.519532c2.34375-2.34375 2.34375-6.140625 0-8.484375s-6.140625-2.34375-8.484375 0zm0 0"/><path d="m21.425781 252.941406h49.265625c3.3125 0 6-2.6875 6-6 0-3.316406-2.6875-6-6-6h-50.632812c-.183594 0-.363282.011719-.539063.027344l17.242188-17.246094c2.34375-2.34375 2.34375-6.140625 0-8.484375s-6.140625-2.34375-8.484375 0l-26.519532 26.519531c-2.34375 2.34375-2.34375 6.140626 0 8.484376l26.519532 26.519531c2.34375 2.34375 6.140625 2.34375 8.484375 0s2.34375-6.144531 0-8.484375zm0 0"/><path d="m463.722656 215.238281c-2.34375-2.34375-6.144531-2.34375-8.488281 0-2.339844 2.34375-2.339844 6.140625.003906 8.484375l15.335938 15.335938h-49.265625c-3.3125 0-6 2.6875-6 6 0 3.316406 2.6875 6 6 6h50.632812c.179688 0 .359375-.011719.539063-.027344l-17.242188 17.246094c-2.34375 2.339844-2.34375 6.140625-.003906 8.484375 2.34375 2.34375 6.144531 2.34375 8.488281 0l26.519532-26.519531c2.34375-2.34375 2.34375-6.140626 0-8.484376zm0 0"/><path d="m76.289062 119.789062c3.3125 0 6-2.6875 6-6v-21.6875l34.835938 34.84375c2.351562 2.3125 6.121094 2.296876 8.453125-.03125 2.328125-2.332031 2.34375-6.101562.035156-8.453124l-35.789062-35.800782c-.140625-.136718-.300781-.242187-.453125-.367187h24.417968c3.3125 0 6-2.683594 6-6 0-3.3125-2.6875-6-6-6h-37.5c-3.3125 0-6 2.6875-6 6v37.5c.003907 3.3125 2.6875 5.996093 6 5.996093zm0 0"/><path d="m415.710938 372.210938c-3.316407 0-6 2.683593-6 6v21.6875l-34.839844-34.84375c-1.507813-1.539063-3.730469-2.144532-5.8125-1.59375-2.082032.550781-3.710938 2.179687-4.261719 4.261718-.554687 2.082032.054687 4.304688 1.589844 5.816406l35.789062 35.796876c.140625.140624.300781.246093.453125.371093h-24.417968c-3.316407 0-6 2.683594-6 6 0 3.3125 2.683593 6 6 6h37.5c3.3125 0 6-2.6875 6-6v-37.5c-.003907-3.3125-2.6875-5.996093-6-5.996093zm0 0"/><path d="m369.300781 127.371094c1.589844 0 3.117188-.632813 4.242188-1.757813l35.796875-35.789062c.132812-.144531.253906-.296875.371094-.453125v24.417968c0 3.3125 2.683593 6 6 6 3.3125 0 6-2.6875 6-6v-37.5c0-3.3125-2.6875-6-6-6h-37.5c-3.316407 0-6 2.6875-6 6s2.683593 6 6 6h21.695312l-34.847656 34.835938c-1.71875 1.71875-2.230469 4.296875-1.300782 6.539062.925782 2.242188 3.113282 3.707032 5.542969 3.707032zm0 0"/><path d="m118.457031 366.386719-35.800781 35.789062c-.128906.144531-.25.292969-.367188.449219v-24.414062c0-3.316407-2.6875-6-6-6s-6 2.683593-6 6v37.5c0 3.3125 2.6875 6 6 6h37.5c3.3125 0 6-2.6875 6-6 0-3.316407-2.6875-6-6-6h-21.6875l34.84375-34.839844c1.539063-1.507813 2.144532-3.730469 1.59375-5.8125-.550781-2.082032-2.179687-3.710938-4.261718-4.261719-2.082032-.554687-4.304688.054687-5.816406 1.589844zm0 0"/></g></svg>